<svg width="2048" height="2048" xmlns="http://www.w3.org/2000/svg">

 <g>
  <title>background</title>
  <rect fill="none" id="canvas_background" height="402" width="582" y="-1" x="-1"/>
 </g>
 <g>
  <title>Layer 1</title>
  <rect fill="none" id="svg_2" width="2048" height="2048" class="fil2"/>
  <path fill-opacity="0.8" fill="#ffffff" id="_333160872" d="m1647.03,1559.85l43.767,0c55.6619,0 101.202,-45.5398 101.202,-101.202l0,-869.293c0,-55.6619 -45.5398,-101.202 -101.202,-101.202l-43.767,0l0,1071.7l0,-0.003z" class="fil0"/>
  <path fill-opacity="0.8" fill="#ffffff" id="_333160368" d="m1028.28,1165.29l-1.1941,0.83976l-3.08977,-2.17559l-3.08977,2.17559l-1.1941,-0.83976c-256.16,-180.406 -507.358,-373.438 -763.717,-562.128l68.3245,-107.101l74.6469,-6.10394l1.99725,-1.80236l620.021,462.933l3.01063,-2.2311l3.01063,2.2311l620.021,-462.933l1.99725,1.80236l74.6469,6.10394l68.3245,107.101c-256.358,188.691 -507.557,381.722 -763.717,562.128l0.00118,0z" class="fil0"/>
  <path fill-opacity="0.8" fill="#ffffff" id="_333160728" d="m400.968,1559.85l-43.767,0c-55.6619,0 -101.202,-45.5398 -101.202,-101.202l0,-869.293c0,-55.6619 45.5398,-101.202 101.202,-101.202l43.767,0l0,1071.7l0,-0.003z" class="fil0"/>
  <polygon fill-opacity="0.8" fill-rule="nonzero" fill="#ffffff" points="366.182,1509.25 1681.82,1509.25 1681.82,1559.85 366.182,1559.85 " id="_333160440" class="fil1"/>
  <polygon fill-opacity="0.8" fill-rule="nonzero" fill="#ffffff" points="366.182,488.152 1681.82,488.152 1681.82,538.754 366.182,538.754 " id="_333160752" class="fil1"/>
 </g>
</svg>